<mxfile host="app.diagrams.net" modified="2021-09-26T16:32:50.719Z" agent="5.0 (Windows NT 10.0; Win64; x64) AppleWebKit/537.36 (KHTML, like Gecko) Chrome/93.0.4577.82 Safari/537.36" etag="9H1n8WnqaZnrwbigyAd0" version="15.3.3" type="github">
  <diagram id="iBnTY5VoGndXLn3tQqyN" name="Page-1">
    <mxGraphModel dx="714" dy="394" grid="1" gridSize="10" guides="1" tooltips="1" connect="1" arrows="1" fold="1" page="1" pageScale="1" pageWidth="827" pageHeight="1169" math="0" shadow="0">
      <root>
        <mxCell id="0" />
        <mxCell id="1" parent="0" />
        <mxCell id="5uZuvWz8gz1tD-2VAbIR-1" value="1" style="swimlane;childLayout=stackLayout;horizontal=1;startSize=30;horizontalStack=0;rounded=1;fontSize=14;fontStyle=1;strokeWidth=2;resizeParent=0;resizeLast=1;shadow=0;dashed=0;align=center;hachureGap=4;pointerEvents=0;fillColor=#dae8fc;strokeColor=#6c8ebf;" vertex="1" parent="1">
          <mxGeometry x="349" y="40" width="130" height="90" as="geometry" />
        </mxCell>
        <mxCell id="5uZuvWz8gz1tD-2VAbIR-2" value="Registration" style="align=center;spacingLeft=4;fontSize=14;verticalAlign=top;resizable=0;rotatable=0;part=1;" vertex="1" parent="5uZuvWz8gz1tD-2VAbIR-1">
          <mxGeometry y="30" width="130" height="60" as="geometry" />
        </mxCell>
        <mxCell id="5uZuvWz8gz1tD-2VAbIR-5" value="2" style="swimlane;childLayout=stackLayout;horizontal=1;startSize=30;horizontalStack=0;rounded=1;fontSize=14;fontStyle=1;strokeWidth=2;resizeParent=0;resizeLast=1;shadow=0;dashed=0;align=center;hachureGap=4;pointerEvents=0;fillColor=#dae8fc;strokeColor=#6c8ebf;" vertex="1" parent="1">
          <mxGeometry x="349" y="160" width="130" height="90" as="geometry" />
        </mxCell>
        <mxCell id="5uZuvWz8gz1tD-2VAbIR-6" value="Login" style="align=center;spacingLeft=4;fontSize=14;verticalAlign=top;resizable=0;rotatable=0;part=1;" vertex="1" parent="5uZuvWz8gz1tD-2VAbIR-5">
          <mxGeometry y="30" width="130" height="60" as="geometry" />
        </mxCell>
        <mxCell id="5uZuvWz8gz1tD-2VAbIR-7" value="3" style="swimlane;childLayout=stackLayout;horizontal=1;startSize=30;horizontalStack=0;rounded=1;fontSize=14;fontStyle=1;strokeWidth=2;resizeParent=0;resizeLast=1;shadow=0;dashed=0;align=center;hachureGap=4;pointerEvents=0;fillColor=#dae8fc;strokeColor=#6c8ebf;" vertex="1" parent="1">
          <mxGeometry x="349" y="280" width="130" height="90" as="geometry" />
        </mxCell>
        <mxCell id="5uZuvWz8gz1tD-2VAbIR-8" value="Schedule" style="align=center;spacingLeft=4;fontSize=14;verticalAlign=top;resizable=0;rotatable=0;part=1;" vertex="1" parent="5uZuvWz8gz1tD-2VAbIR-7">
          <mxGeometry y="30" width="130" height="60" as="geometry" />
        </mxCell>
        <mxCell id="5uZuvWz8gz1tD-2VAbIR-9" value="4" style="swimlane;childLayout=stackLayout;horizontal=1;startSize=30;horizontalStack=0;rounded=1;fontSize=14;fontStyle=1;strokeWidth=2;resizeParent=0;resizeLast=1;shadow=0;dashed=0;align=center;hachureGap=4;pointerEvents=0;fillColor=#dae8fc;strokeColor=#6c8ebf;" vertex="1" parent="1">
          <mxGeometry x="349" y="400" width="130" height="90" as="geometry" />
        </mxCell>
        <mxCell id="5uZuvWz8gz1tD-2VAbIR-10" value="Trip Request" style="align=center;spacingLeft=4;fontSize=14;verticalAlign=top;resizable=0;rotatable=0;part=1;" vertex="1" parent="5uZuvWz8gz1tD-2VAbIR-9">
          <mxGeometry y="30" width="130" height="60" as="geometry" />
        </mxCell>
        <mxCell id="5uZuvWz8gz1tD-2VAbIR-11" value="5" style="swimlane;childLayout=stackLayout;horizontal=1;startSize=30;horizontalStack=0;rounded=1;fontSize=14;fontStyle=1;strokeWidth=2;resizeParent=0;resizeLast=1;shadow=0;dashed=0;align=center;hachureGap=4;pointerEvents=0;fillColor=#dae8fc;strokeColor=#6c8ebf;" vertex="1" parent="1">
          <mxGeometry x="349" y="520" width="130" height="90" as="geometry" />
        </mxCell>
        <mxCell id="5uZuvWz8gz1tD-2VAbIR-12" value="Appoint Driver" style="align=center;spacingLeft=4;fontSize=14;verticalAlign=top;resizable=0;rotatable=0;part=1;" vertex="1" parent="5uZuvWz8gz1tD-2VAbIR-11">
          <mxGeometry y="30" width="130" height="60" as="geometry" />
        </mxCell>
        <mxCell id="5uZuvWz8gz1tD-2VAbIR-13" value="6" style="swimlane;childLayout=stackLayout;horizontal=1;startSize=30;horizontalStack=0;rounded=1;fontSize=14;fontStyle=1;strokeWidth=2;resizeParent=0;resizeLast=1;shadow=0;dashed=0;align=center;hachureGap=4;pointerEvents=0;fillColor=#dae8fc;strokeColor=#6c8ebf;" vertex="1" parent="1">
          <mxGeometry x="349" y="640" width="130" height="90" as="geometry" />
        </mxCell>
        <mxCell id="5uZuvWz8gz1tD-2VAbIR-14" value="Transport" style="align=center;spacingLeft=4;fontSize=14;verticalAlign=top;resizable=0;rotatable=0;part=1;" vertex="1" parent="5uZuvWz8gz1tD-2VAbIR-13">
          <mxGeometry y="30" width="130" height="60" as="geometry" />
        </mxCell>
        <mxCell id="5uZuvWz8gz1tD-2VAbIR-15" value="7" style="swimlane;childLayout=stackLayout;horizontal=1;startSize=30;horizontalStack=0;rounded=1;fontSize=14;fontStyle=1;strokeWidth=2;resizeParent=0;resizeLast=1;shadow=0;dashed=0;align=center;hachureGap=4;pointerEvents=0;fillColor=#dae8fc;strokeColor=#6c8ebf;" vertex="1" parent="1">
          <mxGeometry x="349" y="760" width="130" height="90" as="geometry" />
        </mxCell>
        <mxCell id="5uZuvWz8gz1tD-2VAbIR-16" value="Location" style="align=center;spacingLeft=4;fontSize=14;verticalAlign=top;resizable=0;rotatable=0;part=1;" vertex="1" parent="5uZuvWz8gz1tD-2VAbIR-15">
          <mxGeometry y="30" width="130" height="60" as="geometry" />
        </mxCell>
        <mxCell id="5uZuvWz8gz1tD-2VAbIR-17" value="8" style="swimlane;childLayout=stackLayout;horizontal=1;startSize=30;horizontalStack=0;rounded=1;fontSize=14;fontStyle=1;strokeWidth=2;resizeParent=0;resizeLast=1;shadow=0;dashed=0;align=center;hachureGap=4;pointerEvents=0;fillColor=#dae8fc;strokeColor=#6c8ebf;" vertex="1" parent="1">
          <mxGeometry x="349" y="880" width="130" height="90" as="geometry" />
        </mxCell>
        <mxCell id="5uZuvWz8gz1tD-2VAbIR-18" value="Fuel Cost &#xa;Calculation" style="align=center;spacingLeft=4;fontSize=14;verticalAlign=top;resizable=0;rotatable=0;part=1;" vertex="1" parent="5uZuvWz8gz1tD-2VAbIR-17">
          <mxGeometry y="30" width="130" height="60" as="geometry" />
        </mxCell>
        <mxCell id="5uZuvWz8gz1tD-2VAbIR-20" value="9" style="swimlane;childLayout=stackLayout;horizontal=1;startSize=30;horizontalStack=0;rounded=1;fontSize=14;fontStyle=1;strokeWidth=2;resizeParent=0;resizeLast=1;shadow=0;dashed=0;align=center;hachureGap=4;pointerEvents=0;fillColor=#dae8fc;strokeColor=#6c8ebf;" vertex="1" parent="1">
          <mxGeometry x="349" y="1000" width="130" height="90" as="geometry" />
        </mxCell>
        <mxCell id="5uZuvWz8gz1tD-2VAbIR-21" value="Generate Report" style="align=center;spacingLeft=4;fontSize=14;verticalAlign=top;resizable=0;rotatable=0;part=1;" vertex="1" parent="5uZuvWz8gz1tD-2VAbIR-20">
          <mxGeometry y="30" width="130" height="60" as="geometry" />
        </mxCell>
        <mxCell id="5uZuvWz8gz1tD-2VAbIR-23" value="&lt;font style=&quot;font-size: 16px&quot;&gt;&lt;b&gt;Office Employee&lt;/b&gt;&lt;/font&gt;" style="whiteSpace=wrap;html=1;align=center;hachureGap=4;pointerEvents=0;fontSize=14;" vertex="1" parent="1">
          <mxGeometry x="50" y="40" width="100" height="40" as="geometry" />
        </mxCell>
        <mxCell id="5uZuvWz8gz1tD-2VAbIR-25" value="&lt;font style=&quot;font-size: 16px&quot;&gt;&lt;b&gt;Admin&lt;/b&gt;&lt;/font&gt;" style="whiteSpace=wrap;html=1;align=center;hachureGap=4;pointerEvents=0;fontSize=14;" vertex="1" parent="1">
          <mxGeometry x="50" y="1000" width="100" height="40" as="geometry" />
        </mxCell>
        <mxCell id="5uZuvWz8gz1tD-2VAbIR-26" value="&lt;b&gt;Driver&lt;/b&gt;" style="whiteSpace=wrap;html=1;align=center;hachureGap=4;pointerEvents=0;fontSize=16;" vertex="1" parent="1">
          <mxGeometry x="690" y="1000" width="100" height="40" as="geometry" />
        </mxCell>
        <mxCell id="5uZuvWz8gz1tD-2VAbIR-27" value="" style="endArrow=classic;html=1;fontSize=14;sourcePerimeterSpacing=8;targetPerimeterSpacing=8;exitX=0.7;exitY=0;exitDx=0;exitDy=0;exitPerimeter=0;entryX=0.171;entryY=-0.033;entryDx=0;entryDy=0;entryPerimeter=0;" edge="1" parent="1" source="5uZuvWz8gz1tD-2VAbIR-23" target="5uZuvWz8gz1tD-2VAbIR-1">
          <mxGeometry width="50" height="50" relative="1" as="geometry">
            <mxPoint x="280" y="70" as="sourcePoint" />
            <mxPoint x="330" y="20" as="targetPoint" />
            <Array as="points">
              <mxPoint x="120" y="20" />
              <mxPoint x="371" y="20" />
            </Array>
          </mxGeometry>
        </mxCell>
        <mxCell id="5uZuvWz8gz1tD-2VAbIR-28" value="Insert Information" style="text;html=1;align=center;verticalAlign=middle;resizable=0;points=[];autosize=1;strokeColor=none;fillColor=none;fontSize=14;" vertex="1" parent="1">
          <mxGeometry x="180" width="120" height="20" as="geometry" />
        </mxCell>
      </root>
    </mxGraphModel>
  </diagram>
</mxfile>
